<svg width="24" height="24" viewBox="0 0 24 24" fill="none" xmlns="http://www.w3.org/2000/svg">
<path d="M4 11.7257C4 11.346 4.28215 11.0322 4.64823 10.9825L4.75 10.9757L17.934 10.9763L13.171 6.23275C12.8775 5.94048 12.8765 5.46561 13.1687 5.17209C13.4344 4.90525 13.851 4.88015 14.1451 5.09737L14.2294 5.1698L20.2794 11.1938C20.3181 11.2323 20.3517 11.274 20.3802 11.3181C20.3883 11.3313 20.3965 11.3449 20.4042 11.3587C20.4114 11.3706 20.4178 11.3829 20.4239 11.3953C20.4324 11.4134 20.4407 11.4321 20.4482 11.4512C20.4543 11.4659 20.4594 11.4803 20.464 11.4947C20.4696 11.5126 20.4749 11.5316 20.4796 11.551C20.483 11.5645 20.4857 11.5775 20.4881 11.5906C20.4914 11.61 20.4943 11.6301 20.4963 11.6505C20.498 11.666 20.4991 11.6814 20.4997 11.6968C20.4998 11.7061 20.5 11.7159 20.5 11.7257L20.4996 11.7547C20.4991 11.7694 20.498 11.7842 20.4966 11.7988L20.5 11.7257C20.5 11.773 20.4956 11.8193 20.4872 11.8642C20.4853 11.8749 20.483 11.8859 20.4804 11.8969C20.4751 11.9195 20.4689 11.9412 20.4618 11.9625C20.4584 11.9731 20.4543 11.9844 20.45 11.9957C20.4412 12.0182 20.4317 12.0397 20.4212 12.0607C20.4163 12.0706 20.4109 12.0809 20.4052 12.0911C20.3958 12.1077 20.3861 12.1236 20.3759 12.139C20.3687 12.1499 20.3607 12.1613 20.3524 12.1725L20.3459 12.1811C20.3257 12.2075 20.3038 12.2325 20.2803 12.256L20.2794 12.2567L14.2294 18.2817C13.9359 18.574 13.4611 18.573 13.1688 18.2795C12.9031 18.0127 12.8797 17.596 13.0982 17.3028L13.171 17.2188L17.932 12.4763L4.75 12.4757C4.33579 12.4757 4 12.1399 4 11.7257Z" fill="white"/>
</svg>
